<svg width="142" height="142" viewBox="0 0 142 142" fill="none" xmlns="http://www.w3.org/2000/svg">
<path fill-rule="evenodd" clip-rule="evenodd" d="M70.9999 127.8C102.37 127.8 127.8 102.37 127.8 70.9999C127.8 39.6302 102.37 14.2 70.9999 14.2C39.6302 14.2 14.2 39.6302 14.2 70.9999C14.2 102.37 39.6302 127.8 70.9999 127.8ZM97.3204 65.9795L76.0204 44.6795C73.2477 41.9068 68.7522 41.9068 65.9795 44.6795C63.2068 47.4522 63.2068 51.9477 65.9795 54.7204L75.159 63.8999L49.6999 63.8999C45.7787 63.8999 42.5999 67.0787 42.5999 70.9999C42.5999 74.9212 45.7787 78.0999 49.6999 78.0999H75.159L65.9795 87.2795C63.2068 90.0522 63.2068 94.5477 65.9795 97.3204C68.7522 100.093 73.2477 100.093 76.0204 97.3204L97.3204 76.0204C100.093 73.2477 100.093 68.7522 97.3204 65.9795Z" fill="#1FAB89"/>
</svg>
