<svg width="60" height="60" viewBox="0 0 60 60" fill="none" xmlns="http://www.w3.org/2000/svg">
<path fill-rule="evenodd" clip-rule="evenodd" d="M30 54C43.2548 54 54 43.2548 54 30C54 16.7452 43.2548 6 30 6C16.7452 6 6 16.7452 6 30C6 43.2548 16.7452 54 30 54ZM32.1213 23.1213C33.2929 21.9497 33.2929 20.0503 32.1213 18.8787C30.9497 17.7071 29.0502 17.7071 27.8787 18.8787L18.8787 27.8787C17.7071 29.0503 17.7071 30.9497 18.8787 32.1213L27.8787 41.1213C29.0503 42.2929 30.9497 42.2929 32.1213 41.1213C33.2929 39.9497 33.2929 38.0502 32.1213 36.8787L28.2426 33H39C40.6568 33 42 31.6569 42 30C42 28.3431 40.6568 27 39 27L28.2426 27L32.1213 23.1213Z" fill="#1FAB89"/>
</svg>
